# xmcd CD database file
#
# Track frame offsets:
#	150
#	20368
#	29208
#	52458
#	74603
#	95946
#	113359
#	137843
#	161409
#	180432
#
# Disc length: 2676 seconds
#
# Revision: 0
# Processed by: cddbd v1.5.2PL0 Copyright (c) Steve Scherf et al.
# Submitted via: CDex 1.51
#
DISCID=910a720a
DTITLE=고찬용 - After 10 Years Absence
DYEAR=2006
DGENRE=Jazz
TTITLE0=꿈꾸는 아이
TTITLE1=고백
TTITLE2=스물셋
TTITLE3=어느 지난얘기처럼
TTITLE4=길
TTITLE5=값진충고
TTITLE6=겨울이 오네
TTITLE7=너 머물러있던 순간
TTITLE8=새로운 시작
TTITLE9=오늘 하루는
EXTD=YEAR: 2006
EXTT0=
EXTT1=
EXTT2=
EXTT3=
EXTT4=
EXTT5=
EXTT6=
EXTT7=
EXTT8=
EXTT9=
PLAYORDER=
